<svg xmlns="http://www.w3.org/2000/svg" viewBox="0 0 1600 900" fill="none">
  <defs>
    <linearGradient id="bg" x1="800" y1="0" x2="800" y2="900" gradientUnits="userSpaceOnUse">
      <stop stop-color="#F1F5FA"/>
      <stop offset=".72" stop-color="#C5D0DE"/>
      <stop offset="1" stop-color="#8B96A5"/>
    </linearGradient>
  </defs>
  <rect width="1600" height="900" fill="url(#bg)"/>
  <rect y="690" width="1600" height="210" fill="#6D7887" fill-opacity=".36"/>
  <rect x="130" y="170" width="68" height="240" rx="22" fill="#97A0AD" fill-opacity=".22"/>
  <path d="M158 214V334" stroke="#606A79" stroke-width="6" stroke-linecap="round"/>
  <rect x="1120" y="318" width="250" height="250" rx="20" fill="#677182" fill-opacity=".16" stroke="#5F6875" stroke-opacity=".34"/>
  <rect x="1146" y="348" width="40" height="188" rx="8" fill="#D8DEE8" fill-opacity=".7"/>
  <rect x="1198" y="336" width="44" height="200" rx="8" fill="#4F5968"/>
  <rect x="1254" y="360" width="42" height="176" rx="8" fill="#4F5968"/>
  <rect x="1308" y="342" width="40" height="194" rx="8" fill="#4F5968"/>
  <rect x="624" y="72" width="354" height="34" rx="17" fill="#FFF" fill-opacity=".72"/>
  <circle cx="1188" cy="726" r="118" stroke="#5B6675" stroke-width="14" stroke-opacity=".52"/>
  <circle cx="1188" cy="726" r="9" fill="#4E5866"/>
  <path d="M1188 726V660" stroke="#4E5866" stroke-width="8" stroke-linecap="round"/>
  <path d="M1188 726H1242" stroke="#4E5866" stroke-width="8" stroke-linecap="round"/>
  <path d="M282 244l6-120m20 146l8-82" stroke="#707A89" stroke-width="5" stroke-linecap="round"/>
</svg>
